<svg xmlns="http://www.w3.org/2000/svg" xml:space="preserve" fill-rule="evenodd" stroke-linecap="round" stroke-linejoin="round" stroke-miterlimit="1.5" clip-rule="evenodd" viewBox="0 0 302 302"><path stroke="#000" stroke-width=".5" d="m170.709 8.52 122.229 122.23c11.028 11.027 11.028 28.932 0 39.959L170.709 292.938c-11.027 11.028-28.932 11.028-39.959 0L8.52 170.709c-11.027-11.027-11.027-28.932 0-39.959L130.75 8.52c11.027-11.027 28.932-11.027 39.959 0Z"/><path fill="url(#a)" d="m170.709 8.52 122.229 122.23c11.028 11.027 11.028 28.932 0 39.959L170.709 292.938c-11.027 11.028-28.932 11.028-39.959 0L8.52 170.709c-11.027-11.027-11.027-28.932 0-39.959L130.75 8.52c11.027-11.027 28.932-11.027 39.959 0Z"/><g fill="none" stroke="#fff" stroke-miterlimit="25"><ellipse cx="150.729" cy="150.729" stroke-width=".52" rx="148" ry="56"/><ellipse cx="150.729" cy="150.729" stroke-width=".52" rx="146.5" ry="54"/><ellipse cx="150.729" cy="150.729" stroke-width=".52" rx="145" ry="52"/><ellipse cx="150.729" cy="150.729" stroke-width=".52" rx="143.5" ry="50"/><ellipse cx="150.729" cy="150.729" stroke-width=".52" rx="142" ry="48"/><ellipse cx="150.729" cy="150.729" stroke-width=".52" rx="140.5" ry="46"/><ellipse cx="150.729" cy="150.729" stroke-width=".52" rx="139" ry="44"/><ellipse cx="150.729" cy="150.729" stroke-width=".52" rx="137.5" ry="42"/><ellipse cx="150.729" cy="150.729" stroke-width=".52" rx="136" ry="40"/><ellipse cx="150.729" cy="150.729" stroke-width=".52" rx="134.5" ry="38"/><ellipse cx="150.729" cy="150.729" stroke-width=".52" rx="133" ry="36"/><ellipse cx="150.729" cy="150.729" stroke-width=".52" rx="131.5" ry="34"/><ellipse cx="150.729" cy="150.729" stroke-width=".52" rx="130" ry="32"/><ellipse cx="150.729" cy="150.729" stroke-width=".52" rx="128.5" ry="30"/><ellipse cx="150.729" cy="150.729" stroke-width=".52" rx="127" ry="28"/><ellipse cx="150.729" cy="150.729" stroke-width=".52" rx="125.5" ry="26"/><ellipse cx="150.729" cy="150.729" stroke-width=".52" rx="124" ry="24"/><ellipse cx="150.729" cy="150.729" stroke-width=".52" rx="122.5" ry="22"/><ellipse cx="150.729" cy="150.729" stroke-width=".52" rx="121" ry="20"/><ellipse cx="150.729" cy="150.729" stroke-width=".52" rx="119.5" ry="18"/><ellipse cx="150.729" cy="150.729" stroke-width=".52" rx="118" ry="16"/><ellipse cx="150.729" cy="150.729" stroke-width=".52" rx="116.5" ry="14"/><ellipse cx="150.729" cy="150.729" stroke-width=".52" rx="115" ry="12"/><ellipse cx="150.729" cy="150.729" stroke-width=".52" rx="113.5" ry="10"/><ellipse cx="150.729" cy="150.729" stroke-width=".52" rx="112" ry="8"/><ellipse cx="150.729" cy="150.729" stroke-width=".52" rx="110.5" ry="6"/><ellipse cx="150.729" cy="150.729" stroke-width=".52" rx="109" ry="4"/><ellipse cx="150.729" cy="150.729" stroke-width=".52" rx="108" ry="2"/><ellipse cx="150.729" cy="150.729" stroke-width=".52" rx="106.5" ry=".5"/><path stroke-width=".1" d="M45.847 150.729h217"/></g><g fill="none" stroke="#fff" stroke-miterlimit="25"><path stroke-width=".52" d="M206.729 150.729c0 81.684-25.092 148-56 148-30.907 0-56-66.316-56-148 0-81.683 25.093-148 56-148 30.908 0 56 66.317 56 148Z"/><path stroke-width=".52" d="M204.729 150.729c0 80.856-24.196 146.5-54 146.5-29.803 0-54-65.644-54-146.5 0-80.855 24.197-146.5 54-146.5 29.804 0 54 65.645 54 146.5Z"/><path stroke-width=".52" d="M202.729 150.729c0 80.028-23.3 145-52 145-28.699 0-52-64.972-52-145 0-80.027 23.301-145 52-145 28.7 0 52 64.973 52 145Z"/><path stroke-width=".52" d="M200.729 150.729c0 79.2-22.404 143.5-50 143.5-27.595 0-50-64.3-50-143.5 0-79.199 22.405-143.5 50-143.5 27.596 0 50 64.301 50 143.5Z"/><path stroke-width=".52" d="M198.729 150.729c0 78.372-21.508 142-48 142s-48-63.628-48-142 21.508-142 48-142 48 63.628 48 142Z"/><path stroke-width=".52" d="M196.729 150.729c0 77.544-20.612 140.5-46 140.5s-46-62.956-46-140.5 20.612-140.5 46-140.5 46 62.956 46 140.5Z"/><path stroke-width=".52" d="M194.729 150.729c0 76.717-19.715 139-44 139-24.284 0-44-62.283-44-139 0-76.716 19.716-139 44-139 24.285 0 44 62.284 44 139Z"/><path stroke-width=".52" d="M192.729 150.729c0 75.889-18.819 137.5-42 137.5-23.18 0-42-61.611-42-137.5 0-75.888 18.82-137.5 42-137.5 23.181 0 42 61.612 42 137.5Z"/><path stroke-width=".52" d="M190.729 150.729c0 75.061-17.923 136-40 136-22.076 0-40-60.939-40-136 0-75.06 17.924-136 40-136 22.077 0 40 60.94 40 136Z"/><path stroke-width=".52" d="M188.729 150.729c0 74.233-17.027 134.5-38 134.5-20.972 0-38-60.267-38-134.5 0-74.232 17.028-134.5 38-134.5 20.973 0 38 60.268 38 134.5Z"/><path stroke-width=".52" d="M186.729 150.729c0 73.405-16.131 133-36 133s-36-59.595-36-133c0-73.404 16.131-133 36-133s36 59.596 36 133Z"/><path stroke-width=".52" d="M184.729 150.729c0 72.577-15.235 131.5-34 131.5s-34-58.923-34-131.5c0-72.576 15.235-131.5 34-131.5s34 58.924 34 131.5Z"/><path stroke-width=".52" d="M182.729 150.729c0 71.749-14.338 130-32 130-17.661 0-32-58.251-32-130s14.339-130 32-130c17.662 0 32 58.251 32 130Z"/><path stroke-width=".52" d="M180.729 150.729c0 70.921-13.442 128.5-30 128.5-16.557 0-30-57.579-30-128.5 0-70.921 13.443-128.5 30-128.5 16.558 0 30 57.579 30 128.5Z"/><path stroke-width=".52" d="M178.729 150.729c0 70.094-12.546 127-28 127-15.453 0-28-56.906-28-127 0-70.093 12.547-127 28-127 15.454 0 28 56.907 28 127Z"/><path stroke-width=".52" d="M176.729 150.729c0 69.266-11.65 125.5-26 125.5-14.349 0-26-56.234-26-125.5 0-69.265 11.651-125.5 26-125.5 14.35 0 26 56.235 26 125.5Z"/><path stroke-width=".52" d="M174.729 150.729c0 68.438-10.754 124-24 124s-24-55.562-24-124c0-68.437 10.754-124 24-124s24 55.563 24 124Z"/><path stroke-width=".52" d="M172.729 150.729c0 67.61-9.857 122.5-22 122.5-12.142 0-22-54.89-22-122.5 0-67.609 9.858-122.5 22-122.5 12.143 0 22 54.891 22 122.5Z"/><path stroke-width=".52" d="M170.729 150.729c0 66.782-8.961 121-20 121-11.038 0-20-54.218-20-121 0-66.781 8.962-121 20-121 11.039 0 20 54.219 20 121Z"/><path stroke-width=".52" d="M168.729 150.729c0 65.954-8.065 119.5-18 119.5-9.934 0-18-53.546-18-119.5 0-65.953 8.066-119.5 18-119.5 9.935 0 18 53.547 18 119.5Z"/><path stroke-width=".52" d="M166.729 150.729c0 65.126-7.169 118-16 118-8.83 0-16-52.874-16-118s7.17-118 16-118c8.831 0 16 52.874 16 118Z"/><path stroke-width=".52" d="M164.729 150.729c0 64.298-6.273 116.5-14 116.5-7.726 0-14-52.202-14-116.5s6.274-116.5 14-116.5c7.727 0 14 52.202 14 116.5Z"/><path stroke-width=".52" d="M162.729 150.729c0 63.471-5.377 115-12 115s-12-51.529-12-115c0-63.47 5.377-115 12-115s12 51.53 12 115Z"/><path stroke-width=".52" d="M160.729 150.729c0 62.643-4.48 113.5-10 113.5-5.519 0-10-50.857-10-113.5 0-62.642 4.481-113.5 10-113.5 5.52 0 10 50.858 10 113.5Z"/><path stroke-width=".52" d="M158.729 150.729c0 61.815-3.584 112-8 112-4.415 0-8-50.185-8-112 0-61.814 3.585-112 8-112 4.416 0 8 50.186 8 112Z"/><path stroke-width=".52" d="M156.729 150.729c0 60.987-2.688 110.5-6 110.5-3.311 0-6-49.513-6-110.5 0-60.986 2.689-110.5 6-110.5 3.312 0 6 49.514 6 110.5Z"/><path stroke-width=".52" d="M154.729 150.729c0 60.159-1.792 109-4 109-2.207 0-4-48.841-4-109 0-60.158 1.793-109 4-109 2.208 0 4 48.842 4 109Z"/><path stroke-width=".52" d="M152.729 150.729c0 59.607-.896 108-2 108-1.103 0-2-48.393-2-108 0-59.606.897-108 2-108 1.104 0 2 48.394 2 108Z"/><path stroke-width=".52" d="M151.229 150.729c0 58.779-.224 106.5-.5 106.5s-.5-47.721-.5-106.5.224-106.5.5-106.5.5 47.721.5 106.5Z"/><path stroke-width=".1" d="M150.73 45.847v217"/></g><g fill="none" stroke="#fff" stroke-miterlimit="25"><path stroke-width=".52" d="M180.456 181.152c-43.868 43.868-92.959 66.007-109.557 49.408-16.599-16.598 5.54-65.689 49.408-109.557 43.867-43.867 92.958-66.006 109.557-49.408 16.598 16.599-5.541 65.69-49.408 109.557Z"/><path stroke-width=".52" d="M179.381 180.078c-43.423 43.423-91.671 65.682-107.677 49.677-16.006-16.006 6.254-64.255 49.677-107.678s91.671-65.682 107.677-49.676-6.254 64.254-49.677 107.677Z"/><path stroke-width=".52" d="M178.307 179.004c-42.978 42.978-90.384 65.358-105.797 49.945-15.413-15.413 6.966-62.819 49.945-105.798 42.978-42.978 90.384-65.358 105.797-49.945 15.413 15.413-6.966 62.82-49.945 105.798Z"/><path stroke-width=".52" d="M177.233 177.93c-42.533 42.534-89.098 65.034-103.918 50.213-14.82-14.82 7.68-61.384 50.214-103.918 42.534-42.533 89.098-65.033 103.918-50.213 14.82 14.82-7.68 61.384-50.214 103.918Z"/><path stroke-width=".52" d="M176.159 176.856c-42.089 42.089-87.811 64.709-102.038 50.482-14.227-14.227 8.393-59.949 50.482-102.038 42.089-42.09 87.811-64.71 102.038-50.482 14.228 14.227-8.393 59.949-50.482 102.038Z"/><path stroke-width=".52" d="M175.085 175.782c-41.644 41.644-86.524 64.385-100.159 50.75-13.634-13.634 9.107-58.514 50.751-100.158 41.645-41.645 86.524-64.385 100.159-50.751 13.634 13.635-9.106 58.514-50.751 100.159Z"/><path stroke-width=".52" d="M174.011 174.708c-41.2 41.2-85.237 64.06-98.279 51.019-13.042-13.042 9.819-57.079 51.019-98.279 41.2-41.2 85.237-64.061 98.279-51.019 13.042 13.041-9.819 57.079-51.019 98.279Z"/><path stroke-width=".52" d="M172.937 173.633c-40.755 40.756-83.95 63.737-96.399 51.288-12.449-12.449 10.532-55.644 51.287-96.399 40.756-40.755 83.951-63.737 96.4-51.288 12.448 12.449-10.533 55.644-51.288 96.399Z"/><path stroke-width=".52" d="M171.863 172.559c-40.311 40.311-82.664 63.413-94.52 51.557-11.856-11.857 11.246-54.209 51.556-94.52 40.311-40.311 82.664-63.412 94.52-51.556 11.856 11.856-11.245 54.209-51.556 94.519Z"/><path stroke-width=".52" d="M170.789 171.485c-39.866 39.866-81.377 63.088-92.64 51.825-11.264-11.263 11.958-52.774 51.824-92.64 39.867-39.866 81.377-63.088 92.64-51.825 11.264 11.264-11.958 52.774-51.824 92.64Z"/><path stroke-width=".52" d="M169.715 170.411c-39.422 39.422-80.09 62.764-90.761 52.093-10.67-10.67 12.672-51.338 52.094-90.76 39.421-39.421 80.089-62.764 90.76-52.093 10.67 10.67-12.672 51.339-52.093 90.76Z"/><path stroke-width=".52" d="M168.641 169.337c-38.977 38.977-78.803 62.44-88.881 52.362-10.078-10.078 13.385-49.904 52.362-88.881 38.977-38.977 78.803-62.439 88.88-52.362 10.078 10.078-13.385 49.904-52.361 88.881Z"/><path stroke-width=".52" d="M167.566 168.263c-38.532 38.532-77.516 62.115-87.001 52.63-9.484-9.485 14.098-48.468 52.631-87.001 38.532-38.532 77.516-62.115 87.001-52.63s-14.098 48.469-52.631 87.001Z"/><path stroke-width=".52" d="M166.492 167.189c-38.087 38.088-76.229 61.791-85.121 52.899-8.892-8.892 14.811-47.034 52.899-85.122 38.087-38.087 76.229-61.79 85.121-52.898 8.892 8.892-14.811 47.033-52.899 85.121Z"/><path stroke-width=".52" d="M165.418 166.115c-37.643 37.643-74.942 61.466-83.241 53.167-8.3-8.299 15.524-45.598 53.167-83.242 37.643-37.643 74.942-61.466 83.242-53.167 8.299 8.299-15.525 45.599-53.168 83.242Z"/><path stroke-width=".52" d="M164.344 165.041c-37.198 37.198-73.655 61.142-81.362 53.436-7.706-7.707 16.237-44.164 53.436-81.362 37.198-37.199 73.656-61.143 81.362-53.436 7.706 7.706-16.237 44.163-53.436 81.362Z"/><path stroke-width=".52" d="M163.27 163.967c-36.754 36.754-72.369 60.818-79.482 53.704-7.114-7.114 16.95-42.728 53.704-79.482 36.754-36.754 72.369-60.818 79.482-53.705 7.114 7.114-16.95 42.729-53.704 79.483Z"/><path stroke-width=".52" d="M162.196 162.893c-36.309 36.309-71.082 60.493-77.603 53.972-6.521-6.52 17.664-41.293 53.973-77.602 36.309-36.31 71.082-60.494 77.603-53.973 6.521 6.521-17.664 41.293-53.973 77.603Z"/><path stroke-width=".52" d="M161.122 161.819c-35.865 35.864-69.795 60.169-75.723 54.241-5.928-5.928 18.377-39.859 54.241-75.723 35.865-35.865 69.795-60.17 75.723-54.242 5.928 5.928-18.376 39.859-54.241 75.724Z"/><path stroke-width=".52" d="M160.048 160.744c-35.42 35.421-68.508 59.846-73.844 54.51-5.335-5.335 19.09-38.423 54.51-73.843s68.509-59.845 73.844-54.51c5.335 5.335-19.09 38.423-54.51 73.843Z"/><path stroke-width=".52" d="M158.974 159.67c-34.976 34.976-67.222 59.521-71.964 54.779-4.742-4.743 19.803-36.989 54.778-71.964 34.976-34.976 67.222-59.521 71.964-54.778 4.743 4.742-19.803 36.988-54.778 71.963Z"/><path stroke-width=".52" d="M157.9 158.596c-34.531 34.531-65.935 59.197-70.084 55.047-4.15-4.149 20.516-35.553 55.046-70.084 34.531-34.531 65.935-59.197 70.085-55.047 4.149 4.15-20.516 35.553-55.047 70.084Z"/><path stroke-width=".52" d="M156.826 157.522c-34.087 34.086-64.648 58.872-68.205 55.316-3.557-3.557 21.229-34.119 55.316-68.205 34.086-34.086 64.647-58.872 68.204-55.315 3.557 3.557-21.229 34.118-55.315 68.204Z"/><path stroke-width=".52" d="M155.752 156.448c-33.642 33.642-63.361 58.548-66.325 55.584-2.964-2.964 21.942-32.683 55.584-66.325 33.641-33.641 63.36-58.548 66.325-55.584 2.964 2.964-21.943 32.683-55.584 66.325Z"/><path stroke-width=".52" d="M154.677 155.374c-33.197 33.197-62.074 58.224-64.445 55.853-2.371-2.372 22.656-31.249 55.853-64.446s62.074-58.223 64.445-55.852c2.371 2.371-22.656 31.248-55.853 64.445Z"/><path stroke-width=".52" d="M153.603 154.3c-32.752 32.752-60.787 57.899-62.565 56.121-1.779-1.778 23.368-29.813 56.121-62.566 32.752-32.752 60.787-57.899 62.565-56.121 1.779 1.779-23.368 29.813-56.121 62.566Z"/><path stroke-width=".52" d="M152.529 153.226c-32.308 32.308-59.5 57.575-60.686 56.389-1.185-1.185 24.082-28.378 56.39-60.686 32.308-32.307 59.5-57.575 60.686-56.389 1.185 1.186-24.082 28.378-56.39 60.686Z"/><path stroke-width=".52" d="M151.455 152.152c-32.011 32.011-58.482 57.519-59.075 56.926-.592-.592 24.916-27.063 56.927-59.074 32.011-32.012 58.482-57.52 59.075-56.927.593.593-24.915 27.063-56.927 59.075Z"/><path stroke-width=".52" d="M150.65 151.346c-31.567 31.567-57.316 57.075-57.464 56.927-.148-.148 25.36-25.897 56.927-57.464 31.566-31.567 57.315-57.075 57.463-56.926.148.148-25.36 25.896-56.926 57.463Z"/><path stroke-width=".1" d="M206.708 94.751 90.169 211.29"/></g><g fill="none" stroke="#fff" stroke-miterlimit="25"><path stroke-width=".52" d="M180.456 121.003c43.867 43.868 66.006 92.959 49.408 109.557-16.599 16.599-65.69-5.54-109.557-49.408C76.439 137.285 54.3 88.194 70.899 71.595c16.598-16.598 65.689 5.541 109.557 49.408Z"/><path stroke-width=".52" d="M179.381 122.077c43.423 43.423 65.683 91.672 49.677 107.678-16.006 16.005-64.254-6.254-107.677-49.677S55.698 88.407 71.704 72.401c16.006-16.006 64.254 6.253 107.677 49.676Z"/><path stroke-width=".52" d="M178.307 123.151c42.979 42.979 65.358 90.385 49.945 105.798-15.413 15.413-62.819-6.967-105.797-49.945C79.476 136.026 57.097 88.619 72.51 73.206c15.413-15.413 62.819 6.967 105.797 49.945Z"/><path stroke-width=".52" d="M177.233 124.225c42.534 42.534 65.034 89.098 50.214 103.918-14.82 14.821-61.384-7.679-103.918-50.213-42.534-42.534-65.034-89.098-50.214-103.918 14.82-14.82 61.385 7.68 103.918 50.213Z"/><path stroke-width=".52" d="M176.159 125.3c42.089 42.089 64.71 87.811 50.482 102.038-14.227 14.227-59.949-8.393-102.038-50.482S59.894 89.045 74.121 74.818C88.348 60.59 134.07 83.21 176.159 125.3Z"/><path stroke-width=".52" d="M175.085 126.374c41.645 41.644 64.385 86.524 50.751 100.158-13.635 13.635-58.514-9.106-100.159-50.75-41.644-41.645-64.385-86.524-50.751-100.159 13.635-13.634 58.515 9.106 100.159 50.751Z"/><path stroke-width=".52" d="M174.011 127.448c41.2 41.2 64.061 85.237 51.019 98.279-13.042 13.041-57.079-9.819-98.279-51.019-41.2-41.2-64.061-85.238-51.019-98.279 13.042-13.042 57.079 9.819 98.279 51.019Z"/><path stroke-width=".52" d="M172.937 128.522c40.755 40.755 63.736 83.95 51.288 96.399-12.449 12.449-55.644-10.532-96.4-51.288-40.755-40.755-63.736-83.95-51.287-96.399 12.449-12.449 55.644 10.533 96.399 51.288Z"/><path stroke-width=".52" d="M171.863 129.596c40.311 40.311 63.412 82.663 51.556 94.52-11.856 11.856-54.209-11.246-94.52-51.557-40.31-40.31-63.412-82.663-51.556-94.519 11.856-11.856 54.209 11.245 94.52 51.556Z"/><path stroke-width=".52" d="M170.789 130.67c39.866 39.866 63.088 81.377 51.824 92.64-11.263 11.263-52.773-11.959-92.64-51.825-39.866-39.866-63.088-81.376-51.824-92.64 11.263-11.263 52.774 11.959 92.64 51.825Z"/><path stroke-width=".52" d="M169.715 131.744c39.421 39.422 62.763 80.09 52.093 90.76-10.671 10.671-51.339-12.671-90.76-52.093-39.422-39.421-62.764-80.09-52.094-90.76 10.671-10.671 51.339 12.672 90.761 52.093Z"/><path stroke-width=".52" d="M168.641 132.818c38.976 38.977 62.439 78.803 52.361 88.881-10.077 10.078-49.903-13.385-88.88-52.362-38.977-38.977-62.44-78.803-52.362-88.881 10.078-10.077 49.904 13.385 88.881 52.362Z"/><path stroke-width=".52" d="M167.566 133.892c38.533 38.533 62.116 77.516 52.631 87.001s-48.469-14.098-87.001-52.63c-38.533-38.532-62.115-77.516-52.631-87.001 9.485-9.485 48.469 14.098 87.001 52.63Z"/><path stroke-width=".52" d="M166.492 134.966c38.088 38.088 61.791 76.23 52.899 85.122-8.892 8.892-47.034-14.811-85.121-52.899-38.088-38.088-61.791-76.229-52.899-85.121 8.892-8.892 47.034 14.811 85.121 52.898Z"/><path stroke-width=".52" d="M165.418 136.04c37.643 37.644 61.467 74.943 53.168 83.242-8.3 8.299-45.599-15.524-83.242-53.167-37.643-37.643-61.467-74.943-53.167-83.242 8.299-8.299 45.598 15.524 83.241 53.167Z"/><path stroke-width=".52" d="M164.344 137.115c37.199 37.198 61.142 73.655 53.436 81.362-7.706 7.706-44.164-16.238-81.362-53.436-37.199-37.199-61.142-73.656-53.436-81.362 7.707-7.707 44.164 16.237 81.362 53.436Z"/><path stroke-width=".52" d="M163.27 138.189c36.754 36.754 60.818 72.368 53.704 79.482-7.113 7.114-42.728-16.95-79.482-53.704-36.754-36.754-60.818-72.369-53.704-79.483 7.113-7.113 42.728 16.951 79.482 53.705Z"/><path stroke-width=".52" d="M162.196 139.263c36.309 36.309 60.494 71.082 53.973 77.602-6.521 6.521-41.294-17.663-77.603-53.972-36.309-36.31-60.494-71.082-53.973-77.603 6.521-6.521 41.294 17.663 77.603 53.973Z"/><path stroke-width=".52" d="M161.122 140.337c35.865 35.864 60.169 69.795 54.241 75.723-5.928 5.928-39.858-18.377-75.723-54.241-35.864-35.865-60.169-69.796-54.241-75.724 5.928-5.928 39.858 18.377 75.723 54.242Z"/><path stroke-width=".52" d="M160.048 141.411c35.42 35.42 59.845 68.508 54.51 73.843-5.335 5.336-38.424-19.089-73.844-54.51-35.42-35.42-59.845-68.508-54.51-73.843 5.336-5.335 38.424 19.09 73.844 54.51Z"/><path stroke-width=".52" d="M158.974 142.485c34.975 34.975 59.521 67.221 54.778 71.964-4.742 4.742-36.988-19.803-71.964-54.779-34.975-34.975-59.52-67.221-54.778-71.963 4.742-4.743 36.988 19.802 71.964 54.778Z"/><path stroke-width=".52" d="M157.9 143.559c34.531 34.531 59.196 65.935 55.047 70.084-4.15 4.15-35.554-20.516-70.085-55.047-34.53-34.531-59.196-65.934-55.046-70.084 4.149-4.15 35.553 20.516 70.084 55.047Z"/><path stroke-width=".52" d="M156.826 144.633c34.086 34.086 58.872 64.648 55.315 68.205-3.557 3.556-34.118-21.23-68.204-55.316-34.087-34.086-58.873-64.647-55.316-68.204 3.557-3.557 34.118 21.229 68.205 55.315Z"/><path stroke-width=".52" d="M155.752 145.707c33.641 33.642 58.548 63.361 55.584 66.325-2.965 2.964-32.684-21.942-66.325-55.584-33.642-33.642-58.548-63.361-55.584-66.325 2.964-2.964 32.683 21.943 66.325 55.584Z"/><path stroke-width=".52" d="M154.677 146.781c33.197 33.197 58.224 62.074 55.853 64.446-2.371 2.371-31.248-22.656-64.445-55.853-33.197-33.197-58.224-62.074-55.853-64.445 2.371-2.371 31.248 22.655 64.445 55.852Z"/><path stroke-width=".52" d="M153.603 147.855c32.753 32.753 57.9 60.788 56.121 62.566-1.778 1.778-29.813-23.369-62.565-56.121-32.753-32.753-57.9-60.787-56.121-62.566 1.778-1.778 29.813 23.369 62.565 56.121Z"/><path stroke-width=".52" d="M152.529 148.929c32.308 32.308 57.575 59.501 56.39 60.686-1.186 1.186-28.378-24.081-60.686-56.389-32.308-32.308-57.575-59.5-56.39-60.686 1.186-1.186 28.378 24.082 60.686 56.389Z"/><path stroke-width=".52" d="M151.455 150.004c32.012 32.011 57.52 58.482 56.927 59.074-.593.593-27.064-24.915-59.075-56.926C117.296 120.14 91.788 93.67 92.38 93.077c.593-.593 27.064 24.915 59.075 56.927Z"/><path stroke-width=".52" d="M150.65 150.809c31.566 31.567 57.074 57.316 56.926 57.464-.148.148-25.897-25.36-57.463-56.927-31.567-31.567-57.075-57.315-56.927-57.463.148-.149 25.897 25.359 57.464 56.926Z"/><path stroke-width=".1" d="m94.055 94.751 116.538 116.538"/></g><defs><radialGradient id="a" cx="0" cy="0" r="1" gradientTransform="rotate(-45 257.31 -106.581) scale(114.6848)" gradientUnits="userSpaceOnUse"><stop offset="0" stop-color="#fff"/><stop offset=".52" stop-color="#c3c3c3" stop-opacity=".76"/><stop offset="1" stop-opacity="0"/></radialGradient></defs></svg>